<svg width="180" height="180" viewBox="0 0 180 180" fill="none" xmlns="http://www.w3.org/2000/svg">
<rect width="180" height="180" rx="8" fill="#EAE3D2"/>
<path d="M61.4545 15.8636H63.5284V25.75H67.1193V15.8636H69.1818V25.75H72.7443V15.8636H74.8068V27.5H61.4545V15.8636ZM77.3224 27.5V18.7727H79.3793V22.2955H80.1293L82.7543 18.7727H85.2315L81.9986 23.0568L85.2656 27.5H82.777L80.3849 24.2102H79.3793V27.5H77.3224ZM88.9432 27.6761C88.3902 27.6761 87.892 27.5777 87.4489 27.3807C87.0095 27.1799 86.661 26.8845 86.4034 26.4943C86.1496 26.1042 86.0227 25.6231 86.0227 25.0511C86.0227 24.5587 86.1136 24.1515 86.2955 23.8295C86.4773 23.5076 86.7254 23.25 87.0398 23.0568C87.3542 22.8636 87.7083 22.7178 88.1023 22.6193C88.5 22.517 88.911 22.4432 89.3352 22.3977C89.8466 22.3447 90.2614 22.2973 90.5795 22.2557C90.8977 22.2102 91.1288 22.142 91.2727 22.0511C91.4205 21.9564 91.4943 21.8106 91.4943 21.6136V21.5795C91.4943 21.1515 91.3674 20.8201 91.1136 20.5852C90.8598 20.3504 90.4943 20.233 90.017 20.233C89.5133 20.233 89.1136 20.3428 88.8182 20.5625C88.5265 20.7822 88.3295 21.0417 88.2273 21.3409L86.3068 21.0682C86.4583 20.5379 86.7083 20.0947 87.0568 19.7386C87.4053 19.3788 87.8314 19.1098 88.3352 18.9318C88.839 18.75 89.3958 18.6591 90.0057 18.6591C90.4261 18.6591 90.8447 18.7083 91.2614 18.8068C91.678 18.9053 92.0587 19.0682 92.4034 19.2955C92.7481 19.5189 93.0246 19.8239 93.233 20.2102C93.4451 20.5966 93.5511 21.0795 93.5511 21.6591V27.5H91.5739V26.3011H91.5057C91.3807 26.5436 91.2045 26.7708 90.9773 26.983C90.7538 27.1913 90.4716 27.3598 90.1307 27.4886C89.7936 27.6136 89.3977 27.6761 88.9432 27.6761ZM89.4773 26.1648C89.8902 26.1648 90.2481 26.0833 90.5511 25.9205C90.8542 25.7538 91.0871 25.5341 91.25 25.2614C91.4167 24.9886 91.5 24.6913 91.5 24.3693V23.3409C91.4356 23.3939 91.3258 23.4432 91.1705 23.4886C91.0189 23.5341 90.8485 23.5739 90.6591 23.608C90.4697 23.642 90.2822 23.6723 90.0966 23.6989C89.911 23.7254 89.75 23.7481 89.6136 23.767C89.3068 23.8087 89.0322 23.8769 88.7898 23.9716C88.5473 24.0663 88.3561 24.1989 88.2159 24.3693C88.0758 24.536 88.0057 24.7519 88.0057 25.017C88.0057 25.3958 88.1439 25.6818 88.4205 25.875C88.697 26.0682 89.0492 26.1648 89.4773 26.1648ZM99.5795 30.4659V15.8636H101.642V30.4659H99.5795ZM99.5795 27.6705C98.9394 27.6705 98.3542 27.5625 97.8239 27.3466C97.2936 27.1307 96.8352 26.8239 96.4489 26.4261C96.0663 26.0284 95.7689 25.5549 95.5568 25.0057C95.3485 24.4527 95.2443 23.8409 95.2443 23.1705C95.2443 22.5 95.3485 21.8883 95.5568 21.3352C95.7689 20.7822 96.0663 20.3068 96.4489 19.9091C96.8352 19.5076 97.2936 19.1989 97.8239 18.983C98.3542 18.767 98.9394 18.6591 99.5795 18.6591H100.017V27.6705H99.5795ZM99.5795 26.0114H99.8352V20.3182H99.5795C99.2159 20.3182 98.8939 20.3939 98.6136 20.5455C98.3371 20.6932 98.1042 20.8996 97.9148 21.1648C97.7292 21.4261 97.5871 21.7292 97.4886 22.0739C97.3939 22.4148 97.3466 22.7803 97.3466 23.1705C97.3466 23.6894 97.4318 24.1648 97.6023 24.5966C97.7727 25.0246 98.0227 25.3674 98.3523 25.625C98.6856 25.8826 99.0947 26.0114 99.5795 26.0114ZM101.642 27.6705H101.205V18.6591H101.642C102.282 18.6591 102.867 18.767 103.398 18.983C103.928 19.1989 104.384 19.5076 104.767 19.9091C105.153 20.3068 105.451 20.7822 105.659 21.3352C105.871 21.8883 105.977 22.5 105.977 23.1705C105.977 23.8409 105.871 24.4527 105.659 25.0057C105.451 25.5549 105.153 26.0284 104.767 26.4261C104.384 26.8239 103.928 27.1307 103.398 27.3466C102.867 27.5625 102.282 27.6705 101.642 27.6705ZM101.642 26.0114C102.009 26.0114 102.331 25.9375 102.608 25.7898C102.884 25.642 103.116 25.4375 103.301 25.1761C103.491 24.9148 103.633 24.6136 103.727 24.2727C103.822 23.928 103.869 23.5606 103.869 23.1705C103.869 22.6515 103.786 22.1761 103.619 21.7443C103.453 21.3125 103.203 20.9678 102.869 20.7102C102.54 20.4489 102.131 20.3182 101.642 20.3182H101.386V26.0114H101.642ZM109.105 21.6136H111.679C112.793 21.6136 113.654 21.8845 114.264 22.4261C114.874 22.9678 115.181 23.678 115.185 24.5568C115.181 25.1288 115.041 25.6364 114.764 26.0795C114.491 26.5227 114.094 26.8712 113.571 27.125C113.052 27.375 112.421 27.5 111.679 27.5H107.713V18.7727H109.696V25.8125H111.679C112.126 25.8125 112.493 25.6989 112.781 25.4716C113.069 25.2405 113.213 24.9451 113.213 24.5852C113.213 24.2064 113.069 23.8977 112.781 23.6591C112.493 23.4205 112.126 23.3011 111.679 23.3011H109.105V21.6136ZM116.27 27.5V18.7727H118.327V27.5H116.27Z" fill="#333333"/>
<g clip-path="url(#clip0_35_18)">
<path d="M48 52H132V151.75H48V52Z" stroke="black" stroke-width="3" stroke-linejoin="round"/>
<path d="M90 52V151.75" stroke="black" stroke-width="3" stroke-linejoin="round"/>
<path d="M103.125 109.75C104.575 109.75 105.75 108.575 105.75 107.125C105.75 105.675 104.575 104.5 103.125 104.5C101.675 104.5 100.5 105.675 100.5 107.125C100.5 108.575 101.675 109.75 103.125 109.75Z" stroke="black" stroke-width="3"/>
<path d="M76.875 109.75C78.3247 109.75 79.5 108.575 79.5 107.125C79.5 105.675 78.3247 104.5 76.875 104.5C75.4253 104.5 74.25 105.675 74.25 107.125C74.25 108.575 75.4253 109.75 76.875 109.75Z" stroke="black" stroke-width="3"/>
<path d="M121.5 157V151.75M63.75 157V151.75" stroke="black" stroke-width="3" stroke-linecap="round" stroke-linejoin="round"/>
</g>
<defs>
<clipPath id="clip0_35_18">
<rect width="126" height="126" fill="white" transform="translate(27 41.5)"/>
</clipPath>
</defs>
</svg>
