<svg width="180" height="180" viewBox="0 0 180 180" fill="none" xmlns="http://www.w3.org/2000/svg">
<rect width="180" height="180" rx="8" fill="#EAE3D2"/>
<path d="M64.892 37.8068V33.2784H65.6705C65.9318 33.0701 66.1761 32.7765 66.4034 32.3977C66.6307 32.0189 66.8239 31.5 66.983 30.8409C67.142 30.1818 67.2519 29.3295 67.3125 28.2841L67.6193 23.3636H75.0568V33.2784H76.3523V37.7955H74.3295V35H66.9148V37.8068H64.892ZM68.125 33.2784H73.0341V25.1307H69.517L69.3352 28.2841C69.286 29.0758 69.2064 29.7841 69.0966 30.4091C68.9867 31.0341 68.8485 31.5852 68.6818 32.0625C68.5152 32.536 68.3295 32.9413 68.125 33.2784ZM81.8423 35.1705C80.9673 35.1705 80.2116 34.9886 79.5753 34.625C78.9427 34.2576 78.456 33.7386 78.1151 33.0682C77.7741 32.3939 77.6037 31.6004 77.6037 30.6875C77.6037 29.7898 77.7741 29.0019 78.1151 28.3239C78.4598 27.642 78.9408 27.1117 79.5582 26.733C80.1757 26.3504 80.901 26.1591 81.7344 26.1591C82.2723 26.1591 82.7798 26.2462 83.2571 26.4205C83.7382 26.5909 84.1624 26.8561 84.5298 27.2159C84.901 27.5758 85.1927 28.0341 85.4048 28.5909C85.617 29.1439 85.723 29.803 85.723 30.5682V31.1989H78.5696V29.8125H83.7514C83.7476 29.4186 83.6624 29.0682 83.4957 28.7614C83.3291 28.4508 83.0961 28.2064 82.7969 28.0284C82.5014 27.8504 82.1567 27.7614 81.7628 27.7614C81.3423 27.7614 80.973 27.8636 80.6548 28.0682C80.3366 28.2689 80.0885 28.5341 79.9105 28.8636C79.7363 29.1894 79.6473 29.5473 79.6435 29.9375V31.1477C79.6435 31.6553 79.7363 32.0909 79.9219 32.4545C80.1075 32.8144 80.367 33.0909 80.7003 33.2841C81.0336 33.4735 81.4238 33.5682 81.8707 33.5682C82.17 33.5682 82.4408 33.5265 82.6832 33.4432C82.9257 33.3561 83.1359 33.2292 83.3139 33.0625C83.492 32.8958 83.6264 32.6894 83.7173 32.4432L85.6378 32.6591C85.5166 33.1667 85.2855 33.6098 84.9446 33.9886C84.6075 34.3636 84.1757 34.6553 83.6491 34.8636C83.1226 35.0682 82.5204 35.1705 81.8423 35.1705ZM87.4631 35V26.2727H89.5199V29.7955H90.2699L92.8949 26.2727H95.3722L92.1392 30.5568L95.4062 35H92.9176L90.5256 31.7102H89.5199V35H87.4631ZM100.02 35.1705C99.1676 35.1705 98.429 34.983 97.804 34.608C97.179 34.233 96.6941 33.7083 96.3494 33.0341C96.0085 32.3598 95.8381 31.572 95.8381 30.6705C95.8381 29.7689 96.0085 28.9792 96.3494 28.3011C96.6941 27.6231 97.179 27.0966 97.804 26.7216C98.429 26.3466 99.1676 26.1591 100.02 26.1591C100.872 26.1591 101.611 26.3466 102.236 26.7216C102.861 27.0966 103.344 27.6231 103.685 28.3011C104.029 28.9792 104.202 29.7689 104.202 30.6705C104.202 31.572 104.029 32.3598 103.685 33.0341C103.344 33.7083 102.861 34.233 102.236 34.608C101.611 34.983 100.872 35.1705 100.02 35.1705ZM100.031 33.5227C100.493 33.5227 100.88 33.3958 101.19 33.142C101.501 32.8845 101.732 32.5398 101.884 32.108C102.039 31.6761 102.116 31.1951 102.116 30.6648C102.116 30.1307 102.039 29.6477 101.884 29.2159C101.732 28.7803 101.501 28.4337 101.19 28.1761C100.88 27.9186 100.493 27.7898 100.031 27.7898C99.5578 27.7898 99.1638 27.9186 98.8494 28.1761C98.5388 28.4337 98.3059 28.7803 98.1506 29.2159C97.9991 29.6477 97.9233 30.1307 97.9233 30.6648C97.9233 31.1951 97.9991 31.6761 98.1506 32.108C98.3059 32.5398 98.5388 32.8845 98.8494 33.142C99.1638 33.3958 99.5578 33.5227 100.031 33.5227ZM105.947 38.2727V26.2727H107.97V27.7159H108.089C108.196 27.5038 108.345 27.2784 108.538 27.0398C108.732 26.7973 108.993 26.5909 109.322 26.4205C109.652 26.2462 110.072 26.1591 110.584 26.1591C111.258 26.1591 111.866 26.3314 112.408 26.6761C112.953 27.017 113.385 27.5227 113.703 28.1932C114.025 28.8598 114.186 29.678 114.186 30.6477C114.186 31.6061 114.029 32.4205 113.714 33.0909C113.4 33.7614 112.972 34.2727 112.43 34.625C111.889 34.9773 111.275 35.1534 110.589 35.1534C110.089 35.1534 109.675 35.0701 109.345 34.9034C109.016 34.7367 108.75 34.536 108.55 34.3011C108.353 34.0625 108.199 33.8371 108.089 33.625H108.004V38.2727H105.947ZM107.964 30.6364C107.964 31.2008 108.044 31.6951 108.203 32.1193C108.366 32.5436 108.599 32.875 108.902 33.1136C109.209 33.3485 109.58 33.4659 110.016 33.4659C110.47 33.4659 110.851 33.3447 111.158 33.1023C111.464 32.8561 111.696 32.5208 111.851 32.0966C112.01 31.6686 112.089 31.1818 112.089 30.6364C112.089 30.0947 112.012 29.6136 111.857 29.1932C111.701 28.7727 111.47 28.4432 111.163 28.2045C110.857 27.9659 110.474 27.8466 110.016 27.8466C109.576 27.8466 109.203 27.9621 108.896 28.1932C108.589 28.4242 108.357 28.7481 108.197 29.1648C108.042 29.5814 107.964 30.072 107.964 30.6364Z" fill="#333333"/>
<g clip-path="url(#clip0_37_68)">
<path d="M71.6667 58.25H108.333L112.917 90.625H67.0834L71.6667 58.25Z" stroke="black" stroke-width="3" stroke-linejoin="round"/>
<path d="M90 90.625V150.75M78.5416 150.75H101.458M103.75 92.9375V106.813" stroke="black" stroke-width="3" stroke-linecap="round" stroke-linejoin="round"/>
</g>
<defs>
<clipPath id="clip0_37_68">
<rect width="110" height="111" fill="white" transform="translate(35 49)"/>
</clipPath>
</defs>
</svg>
