<svg width="180" height="180" viewBox="0 0 180 180" fill="none" xmlns="http://www.w3.org/2000/svg">
<rect width="180" height="180" rx="8" fill="#EAE3D2"/>
<path d="M68.6193 35L64.7898 29.9148H63.7557V35H61.6477V23.3636H63.7557V28.1477H64.2841L68.4205 23.3636H71.017L66.4205 28.6705L71.2159 35H68.6193ZM72.5568 38.2727V26.2727H74.5795V27.7159H74.6989C74.8049 27.5038 74.9545 27.2784 75.1477 27.0398C75.3409 26.7973 75.6023 26.5909 75.9318 26.4205C76.2614 26.2462 76.6818 26.1591 77.1932 26.1591C77.8674 26.1591 78.4754 26.3314 79.017 26.6761C79.5625 27.017 79.9943 27.5227 80.3125 28.1932C80.6345 28.8598 80.7955 29.678 80.7955 30.6477C80.7955 31.6061 80.6383 32.4205 80.3239 33.0909C80.0095 33.7614 79.5814 34.2727 79.0398 34.625C78.4981 34.9773 77.8845 35.1534 77.1989 35.1534C76.6989 35.1534 76.2841 35.0701 75.9545 34.9034C75.625 34.7367 75.3598 34.536 75.1591 34.3011C74.9621 34.0625 74.8087 33.8371 74.6989 33.625H74.6136V38.2727H72.5568ZM74.5739 30.6364C74.5739 31.2008 74.6534 31.6951 74.8125 32.1193C74.9754 32.5436 75.2083 32.875 75.5114 33.1136C75.8182 33.3485 76.1894 33.4659 76.625 33.4659C77.0795 33.4659 77.4602 33.3447 77.767 33.1023C78.0739 32.8561 78.3049 32.5208 78.4602 32.0966C78.6193 31.6686 78.6989 31.1818 78.6989 30.6364C78.6989 30.0947 78.6212 29.6136 78.4659 29.1932C78.3106 28.7727 78.0795 28.4432 77.7727 28.2045C77.4659 27.9659 77.0833 27.8466 76.625 27.8466C76.1856 27.8466 75.8125 27.9621 75.5057 28.1932C75.1989 28.4242 74.9659 28.7481 74.8068 29.1648C74.6515 29.5814 74.5739 30.072 74.5739 30.6364ZM86.4205 35.1705C85.5455 35.1705 84.7898 34.9886 84.1534 34.625C83.5208 34.2576 83.0341 33.7386 82.6932 33.0682C82.3523 32.3939 82.1818 31.6004 82.1818 30.6875C82.1818 29.7898 82.3523 29.0019 82.6932 28.3239C83.0379 27.642 83.5189 27.1117 84.1364 26.733C84.7538 26.3504 85.4792 26.1591 86.3125 26.1591C86.8504 26.1591 87.358 26.2462 87.8352 26.4205C88.3163 26.5909 88.7405 26.8561 89.108 27.2159C89.4792 27.5758 89.7708 28.0341 89.983 28.5909C90.1951 29.1439 90.3011 29.803 90.3011 30.5682V31.1989H83.1477V29.8125H88.3295C88.3258 29.4186 88.2405 29.0682 88.0739 28.7614C87.9072 28.4508 87.6742 28.2064 87.375 28.0284C87.0795 27.8504 86.7348 27.7614 86.3409 27.7614C85.9205 27.7614 85.5511 27.8636 85.233 28.0682C84.9148 28.2689 84.6667 28.5341 84.4886 28.8636C84.3144 29.1894 84.2254 29.5473 84.2216 29.9375V31.1477C84.2216 31.6553 84.3144 32.0909 84.5 32.4545C84.6856 32.8144 84.9451 33.0909 85.2784 33.2841C85.6117 33.4735 86.0019 33.5682 86.4489 33.5682C86.7481 33.5682 87.0189 33.5265 87.2614 33.4432C87.5038 33.3561 87.714 33.2292 87.892 33.0625C88.0701 32.8958 88.2045 32.6894 88.2955 32.4432L90.2159 32.6591C90.0947 33.1667 89.8636 33.6098 89.5227 33.9886C89.1856 34.3636 88.7538 34.6553 88.2273 34.8636C87.7008 35.0682 87.0985 35.1705 86.4205 35.1705ZM95.848 35.1705C94.9768 35.1705 94.2287 34.9792 93.6037 34.5966C92.9825 34.214 92.5033 33.6856 92.1662 33.0114C91.8329 32.3333 91.6662 31.553 91.6662 30.6705C91.6662 29.7841 91.8366 29.0019 92.1776 28.3239C92.5185 27.642 92.9995 27.1117 93.6207 26.733C94.2457 26.3504 94.9844 26.1591 95.8366 26.1591C96.545 26.1591 97.1719 26.2898 97.7173 26.5511C98.2666 26.8087 98.7041 27.1742 99.0298 27.6477C99.3556 28.1174 99.5412 28.6667 99.5866 29.2955H97.6207C97.5412 28.875 97.3518 28.5246 97.0526 28.2443C96.7571 27.9602 96.3613 27.8182 95.8651 27.8182C95.4446 27.8182 95.0753 27.9318 94.7571 28.1591C94.4389 28.3826 94.1908 28.7045 94.0128 29.125C93.8385 29.5455 93.7514 30.0492 93.7514 30.6364C93.7514 31.2311 93.8385 31.7424 94.0128 32.1705C94.187 32.5947 94.4313 32.9223 94.7457 33.1534C95.0639 33.3807 95.437 33.4943 95.8651 33.4943C96.1681 33.4943 96.4389 33.4375 96.6776 33.3239C96.92 33.2064 97.1226 33.0379 97.2855 32.8182C97.4484 32.5985 97.5601 32.3314 97.6207 32.017H99.5866C99.5374 32.6345 99.3556 33.1818 99.0412 33.6591C98.7268 34.1326 98.2988 34.5038 97.7571 34.7727C97.2154 35.0379 96.5791 35.1705 95.848 35.1705ZM100.673 35L100.662 33.3068H100.963C101.19 33.3068 101.382 33.2557 101.537 33.1534C101.692 33.0511 101.821 32.8807 101.923 32.642C102.026 32.3996 102.105 32.0739 102.162 31.6648C102.219 31.2557 102.259 30.7462 102.281 30.1364L102.435 26.2727H108.798V35H106.81V27.9602H104.304L104.168 30.7727C104.134 31.5 104.052 32.1307 103.923 32.6648C103.798 33.1951 103.62 33.6326 103.389 33.9773C103.162 34.322 102.876 34.5795 102.531 34.75C102.187 34.9167 101.779 35 101.31 35H100.673ZM113.381 35.1761C112.828 35.1761 112.33 35.0777 111.886 34.8807C111.447 34.6799 111.098 34.3845 110.841 33.9943C110.587 33.6042 110.46 33.1231 110.46 32.5511C110.46 32.0587 110.551 31.6515 110.733 31.3295C110.915 31.0076 111.163 30.75 111.477 30.5568C111.792 30.3636 112.146 30.2178 112.54 30.1193C112.938 30.017 113.348 29.9432 113.773 29.8977C114.284 29.8447 114.699 29.7973 115.017 29.7557C115.335 29.7102 115.566 29.642 115.71 29.5511C115.858 29.4564 115.932 29.3106 115.932 29.1136V29.0795C115.932 28.6515 115.805 28.3201 115.551 28.0852C115.297 27.8504 114.932 27.733 114.455 27.733C113.951 27.733 113.551 27.8428 113.256 28.0625C112.964 28.2822 112.767 28.5417 112.665 28.8409L110.744 28.5682C110.896 28.0379 111.146 27.5947 111.494 27.2386C111.843 26.8788 112.269 26.6098 112.773 26.4318C113.277 26.25 113.833 26.1591 114.443 26.1591C114.864 26.1591 115.282 26.2083 115.699 26.3068C116.116 26.4053 116.496 26.5682 116.841 26.7955C117.186 27.0189 117.462 27.3239 117.67 27.7102C117.883 28.0966 117.989 28.5795 117.989 29.1591V35H116.011V33.8011H115.943C115.818 34.0436 115.642 34.2708 115.415 34.483C115.191 34.6913 114.909 34.8598 114.568 34.9886C114.231 35.1136 113.835 35.1761 113.381 35.1761ZM113.915 33.6648C114.328 33.6648 114.686 33.5833 114.989 33.4205C115.292 33.2538 115.525 33.0341 115.688 32.7614C115.854 32.4886 115.938 32.1913 115.938 31.8693V30.8409C115.873 30.8939 115.763 30.9432 115.608 30.9886C115.456 31.0341 115.286 31.0739 115.097 31.108C114.907 31.142 114.72 31.1723 114.534 31.1989C114.348 31.2254 114.188 31.2481 114.051 31.267C113.744 31.3087 113.47 31.3769 113.227 31.4716C112.985 31.5663 112.794 31.6989 112.653 31.8693C112.513 32.036 112.443 32.2519 112.443 32.517C112.443 32.8958 112.581 33.1818 112.858 33.375C113.134 33.5682 113.487 33.6648 113.915 33.6648Z" fill="#333333"/>
<g clip-path="url(#clip0_37_58)">
<path d="M62.5 110.807C62.5 109.818 63.1666 108.957 64.1167 108.717C81.1106 104.43 98.8894 104.43 115.883 108.717C116.834 108.957 117.5 109.818 117.5 110.807V118.375C117.5 120.929 115.448 123 112.917 123H67.0833C64.5521 123 62.5 120.929 62.5 118.375V110.807Z" stroke="black" stroke-width="3"/>
<path d="M126.667 95.7125V70.5518C126.667 66.1006 123.525 62.2806 119.189 61.4603L115.34 60.7319C98.5924 57.5632 81.4076 57.5632 64.6603 60.7319L60.8107 61.4603C56.4751 62.2806 53.3333 66.1006 53.3333 70.5518V95.7125" stroke="black" stroke-width="3"/>
<path d="M48.75 141.5H57.9167V150.75H53.3333L48.75 141.5Z" stroke="black" stroke-width="3" stroke-linejoin="round"/>
<path d="M122.083 141.5H131.25L126.667 150.75H122.083V141.5Z" stroke="black" stroke-width="3" stroke-linejoin="round"/>
<path d="M48.75 141.5H131.25" stroke="black" stroke-width="3" stroke-linejoin="round"/>
<path d="M48.75 141.5H131.25C133.781 141.5 135.833 139.429 135.833 136.875V104.5C135.833 99.3912 131.729 95.25 126.667 95.25C121.604 95.25 117.5 99.3912 117.5 104.5V118.375C117.5 120.929 115.448 123 112.917 123H67.0834C64.5521 123 62.5 120.929 62.5 118.375V104.5C62.5 99.3912 58.396 95.25 53.3334 95.25C48.2707 95.25 44.1667 99.3912 44.1667 104.5V136.875C44.1667 139.429 46.2187 141.5 48.75 141.5Z" stroke="black" stroke-width="3" stroke-linejoin="round"/>
</g>
<defs>
<clipPath id="clip0_37_58">
<rect width="110" height="111" fill="white" transform="translate(35 49)"/>
</clipPath>
</defs>
</svg>
