<svg width="180" height="180" viewBox="0 0 180 180" fill="none" xmlns="http://www.w3.org/2000/svg">
<rect width="180" height="180" rx="8" fill="#EAE3D2"/>
<path d="M64.1193 29L60.2898 23.9148H59.2557V29H57.1477V17.3636H59.2557V22.1477H59.7841L63.9205 17.3636H66.517L61.9205 22.6705L66.7159 29H64.1193ZM68.0568 32.2727V20.2727H70.0795V21.7159H70.1989C70.3049 21.5038 70.4545 21.2784 70.6477 21.0398C70.8409 20.7973 71.1023 20.5909 71.4318 20.4205C71.7614 20.2462 72.1818 20.1591 72.6932 20.1591C73.3674 20.1591 73.9754 20.3314 74.517 20.6761C75.0625 21.017 75.4943 21.5227 75.8125 22.1932C76.1345 22.8598 76.2955 23.678 76.2955 24.6477C76.2955 25.6061 76.1383 26.4205 75.8239 27.0909C75.5095 27.7614 75.0814 28.2727 74.5398 28.625C73.9981 28.9773 73.3845 29.1534 72.6989 29.1534C72.1989 29.1534 71.7841 29.0701 71.4545 28.9034C71.125 28.7367 70.8598 28.536 70.6591 28.3011C70.4621 28.0625 70.3087 27.8371 70.1989 27.625H70.1136V32.2727H68.0568ZM70.0739 24.6364C70.0739 25.2008 70.1534 25.6951 70.3125 26.1193C70.4754 26.5436 70.7083 26.875 71.0114 27.1136C71.3182 27.3485 71.6894 27.4659 72.125 27.4659C72.5795 27.4659 72.9602 27.3447 73.267 27.1023C73.5739 26.8561 73.8049 26.5208 73.9602 26.0966C74.1193 25.6686 74.1989 25.1818 74.1989 24.6364C74.1989 24.0947 74.1212 23.6136 73.9659 23.1932C73.8106 22.7727 73.5795 22.4432 73.2727 22.2045C72.9659 21.9659 72.5833 21.8466 72.125 21.8466C71.6856 21.8466 71.3125 21.9621 71.0057 22.1932C70.6989 22.4242 70.4659 22.7481 70.3068 23.1648C70.1515 23.5814 70.0739 24.072 70.0739 24.6364ZM81.8636 29.1705C81.0114 29.1705 80.2727 28.983 79.6477 28.608C79.0227 28.233 78.5379 27.7083 78.1932 27.0341C77.8523 26.3598 77.6818 25.572 77.6818 24.6705C77.6818 23.7689 77.8523 22.9792 78.1932 22.3011C78.5379 21.6231 79.0227 21.0966 79.6477 20.7216C80.2727 20.3466 81.0114 20.1591 81.8636 20.1591C82.7159 20.1591 83.4545 20.3466 84.0795 20.7216C84.7045 21.0966 85.1875 21.6231 85.5284 22.3011C85.8731 22.9792 86.0455 23.7689 86.0455 24.6705C86.0455 25.572 85.8731 26.3598 85.5284 27.0341C85.1875 27.7083 84.7045 28.233 84.0795 28.608C83.4545 28.983 82.7159 29.1705 81.8636 29.1705ZM81.875 27.5227C82.3371 27.5227 82.7235 27.3958 83.0341 27.142C83.3447 26.8845 83.5758 26.5398 83.7273 26.108C83.8826 25.6761 83.9602 25.1951 83.9602 24.6648C83.9602 24.1307 83.8826 23.6477 83.7273 23.2159C83.5758 22.7803 83.3447 22.4337 83.0341 22.1761C82.7235 21.9186 82.3371 21.7898 81.875 21.7898C81.4015 21.7898 81.0076 21.9186 80.6932 22.1761C80.3826 22.4337 80.1496 22.7803 79.9943 23.2159C79.8428 23.6477 79.767 24.1307 79.767 24.6648C79.767 25.1951 79.8428 25.6761 79.9943 26.108C80.1496 26.5398 80.3826 26.8845 80.6932 27.142C81.0076 27.3958 81.4015 27.5227 81.875 27.5227ZM87.7912 29V20.2727H91.456C92.4901 20.2727 93.3063 20.4792 93.9048 20.892C94.5071 21.3049 94.8082 21.8807 94.8082 22.6193C94.8082 23.108 94.6378 23.5076 94.2969 23.8182C93.9598 24.125 93.4995 24.3314 92.9162 24.4375C93.3745 24.4754 93.776 24.5909 94.1207 24.7841C94.4692 24.9773 94.742 25.2311 94.9389 25.5455C95.1359 25.8598 95.2344 26.2216 95.2344 26.6307C95.2344 27.1117 95.1075 27.5303 94.8537 27.8864C94.6037 28.2386 94.2382 28.5133 93.7571 28.7102C93.2798 28.9034 92.7003 29 92.0185 29H87.7912ZM89.7173 27.3807H92.0185C92.3973 27.3807 92.6946 27.2917 92.9105 27.1136C93.1264 26.9318 93.2344 26.6856 93.2344 26.375C93.2344 26.0152 93.1264 25.733 92.9105 25.5284C92.6946 25.3201 92.3973 25.2159 92.0185 25.2159H89.7173V27.3807ZM89.7173 23.8864H91.4957C91.776 23.8864 92.0166 23.8466 92.2173 23.767C92.4181 23.6837 92.5715 23.5682 92.6776 23.4205C92.7836 23.2689 92.8366 23.089 92.8366 22.8807C92.8366 22.5814 92.7135 22.3466 92.4673 22.1761C92.2249 22.0057 91.8878 21.9205 91.456 21.9205H89.7173V23.8864ZM99.4432 29.1761C98.8902 29.1761 98.392 29.0777 97.9489 28.8807C97.5095 28.6799 97.161 28.3845 96.9034 27.9943C96.6496 27.6042 96.5227 27.1231 96.5227 26.5511C96.5227 26.0587 96.6136 25.6515 96.7955 25.3295C96.9773 25.0076 97.2254 24.75 97.5398 24.5568C97.8542 24.3636 98.2083 24.2178 98.6023 24.1193C99 24.017 99.411 23.9432 99.8352 23.8977C100.347 23.8447 100.761 23.7973 101.08 23.7557C101.398 23.7102 101.629 23.642 101.773 23.5511C101.92 23.4564 101.994 23.3106 101.994 23.1136V23.0795C101.994 22.6515 101.867 22.3201 101.614 22.0852C101.36 21.8504 100.994 21.733 100.517 21.733C100.013 21.733 99.6136 21.8428 99.3182 22.0625C99.0265 22.2822 98.8295 22.5417 98.7273 22.8409L96.8068 22.5682C96.9583 22.0379 97.2083 21.5947 97.5568 21.2386C97.9053 20.8788 98.3314 20.6098 98.8352 20.4318C99.339 20.25 99.8958 20.1591 100.506 20.1591C100.926 20.1591 101.345 20.2083 101.761 20.3068C102.178 20.4053 102.559 20.5682 102.903 20.7955C103.248 21.0189 103.525 21.3239 103.733 21.7102C103.945 22.0966 104.051 22.5795 104.051 23.1591V29H102.074V27.8011H102.006C101.881 28.0436 101.705 28.2708 101.477 28.483C101.254 28.6913 100.972 28.8598 100.631 28.9886C100.294 29.1136 99.8977 29.1761 99.4432 29.1761ZM99.9773 27.6648C100.39 27.6648 100.748 27.5833 101.051 27.4205C101.354 27.2538 101.587 27.0341 101.75 26.7614C101.917 26.4886 102 26.1913 102 25.8693V24.8409C101.936 24.8939 101.826 24.9432 101.67 24.9886C101.519 25.0341 101.348 25.0739 101.159 25.108C100.97 25.142 100.782 25.1723 100.597 25.1989C100.411 25.2254 100.25 25.2481 100.114 25.267C99.8068 25.3087 99.5322 25.3769 99.2898 25.4716C99.0473 25.5663 98.8561 25.6989 98.7159 25.8693C98.5758 26.036 98.5057 26.2519 98.5057 26.517C98.5057 26.8958 98.6439 27.1818 98.9205 27.375C99.197 27.5682 99.5492 27.6648 99.9773 27.6648ZM105.142 21.9602V20.2727H112.778V21.9602H109.955V29H107.966V21.9602H105.142ZM116.399 26.2159L119.893 20.2727H122.007V29H120.018V23.0511L116.536 29H114.416V20.2727H116.399V26.2159Z" fill="#333333"/>
<g clip-path="url(#clip0_37_38)">
<path d="M39.1667 135.25H140.833V145.5H39.1667V135.25Z" stroke="black" stroke-width="3" stroke-linejoin="round"/>
<path d="M39.1667 114.75C39.1667 111.919 41.4426 109.625 44.25 109.625H135.75C138.558 109.625 140.833 111.919 140.833 114.75V135.25H39.1667V114.75Z" stroke="black" stroke-width="3" stroke-linejoin="round"/>
<path d="M84.9167 104.5V94.25C84.9167 91.4195 82.6408 89.125 79.8333 89.125H59.5C56.6925 89.125 54.4167 91.4195 54.4167 94.25V104.5C54.4167 107.33 56.6925 109.625 59.5 109.625H79.8333C82.6408 109.625 84.9167 107.33 84.9167 104.5Z" stroke="black" stroke-width="3" stroke-linejoin="round"/>
<path d="M125.583 104.5V94.25C125.583 91.4195 123.307 89.125 120.5 89.125H100.167C97.3592 89.125 95.0833 91.4195 95.0833 94.25V104.5C95.0833 107.33 97.3592 109.625 100.167 109.625H120.5C123.307 109.625 125.583 107.33 125.583 104.5Z" stroke="black" stroke-width="3" stroke-linejoin="round"/>
<path d="M130.667 68.625C133.474 68.625 135.75 70.9196 135.75 73.75V109.625H44.25V73.75C44.25 70.9195 46.5259 68.625 49.3333 68.625H130.667Z" stroke="black" stroke-width="3" stroke-linejoin="round"/>
<path d="M125.583 145.5H135.75V155.75H130.667L125.583 145.5Z" stroke="black" stroke-width="3" stroke-linejoin="round"/>
<path d="M44.25 145.5H54.4167L49.3333 155.75H44.25V145.5Z" stroke="black" stroke-width="3" stroke-linejoin="round"/>
</g>
<defs>
<clipPath id="clip0_37_38">
<rect width="122" height="123" fill="white" transform="translate(29 43)"/>
</clipPath>
</defs>
</svg>
