<svg width="180" height="180" viewBox="0 0 180 180" fill="none" xmlns="http://www.w3.org/2000/svg">
<rect width="180" height="180" rx="8" fill="#EAE3D2"/>
<path d="M63.6364 25.6307V23.8636H72.9205V25.6307H69.3239V35.5H67.233V25.6307H63.6364ZM74.8977 38.7727C74.6174 38.7727 74.358 38.75 74.1193 38.7045C73.8845 38.6629 73.697 38.6136 73.5568 38.5568L74.0341 36.9545C74.3333 37.0417 74.6004 37.0833 74.8352 37.0795C75.0701 37.0758 75.2765 37.0019 75.4545 36.858C75.6364 36.7178 75.7898 36.483 75.9148 36.1534L76.0909 35.6818L72.9261 26.7727H75.108L77.1193 33.3636H77.2102L79.2273 26.7727H81.4148L77.9205 36.5568C77.7576 37.0189 77.5417 37.4148 77.2727 37.7443C77.0038 38.0777 76.6742 38.3314 76.2841 38.5057C75.8977 38.6837 75.4356 38.7727 74.8977 38.7727ZM87.8608 33.108L90.4517 26.7727H92.1108L88.5824 35.5H87.1449L83.696 26.7727H85.3381L87.8608 33.108ZM84.821 26.7727V35.5H82.8381V26.7727H84.821ZM90.9858 35.5V26.7727H92.9517V35.5H90.9858ZM102.02 23.5455L102.736 24.875C102.482 25.0947 102.198 25.2538 101.884 25.3523C101.569 25.4508 101.2 25.5152 100.776 25.5455C100.355 25.572 99.8551 25.5909 99.2756 25.6023C98.6241 25.6174 98.0919 25.7405 97.679 25.9716C97.2661 26.2027 96.9498 26.553 96.7301 27.0227C96.5104 27.4886 96.3665 28.0833 96.2983 28.8068H96.3949C96.6676 28.2727 97.0502 27.8655 97.5426 27.5852C98.035 27.3049 98.6127 27.1648 99.2756 27.1648C99.9991 27.1648 100.637 27.3277 101.19 27.6534C101.747 27.9754 102.181 28.4432 102.491 29.0568C102.806 29.6705 102.963 30.4129 102.963 31.2841C102.963 32.1818 102.795 32.9602 102.457 33.6193C102.12 34.2746 101.641 34.7803 101.02 35.1364C100.402 35.4924 99.6695 35.6705 98.821 35.6705C97.9763 35.6705 97.2415 35.4867 96.6165 35.1193C95.9953 34.7481 95.5142 34.2008 95.1733 33.4773C94.8362 32.75 94.6676 31.8542 94.6676 30.7898V30.0057C94.6676 27.9527 95.0502 26.4205 95.8153 25.4091C96.5805 24.3977 97.715 23.8826 99.2188 23.8636C99.6657 23.8561 100.065 23.8542 100.418 23.858C100.774 23.8617 101.084 23.8447 101.349 23.8068C101.615 23.7689 101.838 23.6818 102.02 23.5455ZM98.8324 34.0227C99.2528 34.0227 99.6165 33.9148 99.9233 33.6989C100.23 33.4792 100.465 33.1686 100.628 32.767C100.795 32.3655 100.878 31.8902 100.878 31.3409C100.878 30.7992 100.795 30.339 100.628 29.9602C100.461 29.5777 100.224 29.286 99.9176 29.0852C99.6108 28.8845 99.2453 28.7841 98.821 28.7841C98.5028 28.7841 98.2169 28.8409 97.9631 28.9545C97.7093 29.0682 97.4934 29.2348 97.3153 29.4545C97.1373 29.6742 97.0009 29.9413 96.9062 30.2557C96.8116 30.5701 96.7604 30.9318 96.7528 31.3409C96.7528 32.1629 96.9384 32.8163 97.3097 33.3011C97.6809 33.7822 98.1884 34.0227 98.8324 34.0227ZM106.105 29.6136H108.679C109.793 29.6136 110.654 29.8845 111.264 30.4261C111.874 30.9678 112.181 31.678 112.185 32.5568C112.181 33.1288 112.041 33.6364 111.764 34.0795C111.491 34.5227 111.094 34.8712 110.571 35.125C110.052 35.375 109.421 35.5 108.679 35.5H104.713V26.7727H106.696V33.8125H108.679C109.126 33.8125 109.493 33.6989 109.781 33.4716C110.069 33.2405 110.213 32.9451 110.213 32.5852C110.213 32.2064 110.069 31.8977 109.781 31.6591C109.493 31.4205 109.126 31.3011 108.679 31.3011H106.105V29.6136ZM113.27 35.5V26.7727H115.327V35.5H113.27Z" fill="#333333"/>
<g clip-path="url(#clip0_37_48)">
<path d="M53.3333 72.4167H126.667V136.583H53.3333V72.4167Z" stroke="black" stroke-width="3" stroke-linejoin="round"/>
<path d="M126.667 104.5H53.3333" stroke="black" stroke-width="3" stroke-linejoin="round"/>
<path d="M99.1666 81.5833H80.8333" stroke="black" stroke-width="3" stroke-linecap="round" stroke-linejoin="round"/>
<path d="M99.1666 113.667H80.8333" stroke="black" stroke-width="3" stroke-linecap="round" stroke-linejoin="round"/>
<path d="M112.917 136.583H122.083V150.333H117.5L112.917 136.583Z" stroke="black" stroke-width="3" stroke-linejoin="round"/>
<path d="M57.9167 136.583H67.0834L62.5 150.333H57.9167V136.583Z" stroke="black" stroke-width="3" stroke-linejoin="round"/>
</g>
<defs>
<clipPath id="clip0_37_48">
<rect width="110" height="110" fill="white" transform="translate(35 49.5)"/>
</clipPath>
</defs>
</svg>
