<svg width="180" height="180" viewBox="0 0 180 180" fill="none" xmlns="http://www.w3.org/2000/svg">
<rect width="180" height="180" rx="8" fill="#EAE3D2"/>
<path d="M74.608 22.7898H72.483C72.4223 22.4413 72.3106 22.1326 72.1477 21.8636C71.9848 21.5909 71.7822 21.3598 71.5398 21.1705C71.2973 20.9811 71.0208 20.839 70.7102 20.7443C70.4034 20.6458 70.072 20.5966 69.7159 20.5966C69.0833 20.5966 68.5227 20.7557 68.0341 21.0739C67.5455 21.3883 67.1629 21.8504 66.8864 22.4602C66.6098 23.0663 66.4716 23.8068 66.4716 24.6818C66.4716 25.572 66.6098 26.322 66.8864 26.9318C67.1667 27.5379 67.5492 27.9962 68.0341 28.3068C68.5227 28.6136 69.0814 28.767 69.7102 28.767C70.0587 28.767 70.3845 28.7216 70.6875 28.6307C70.9943 28.536 71.2689 28.3977 71.5114 28.2159C71.7576 28.0341 71.964 27.8106 72.1307 27.5455C72.3011 27.2803 72.4186 26.9773 72.483 26.6364L74.608 26.6477C74.5284 27.2008 74.3561 27.7197 74.0909 28.2045C73.8295 28.6894 73.4867 29.1174 73.0625 29.4886C72.6383 29.8561 72.142 30.1439 71.5739 30.3523C71.0057 30.5568 70.375 30.6591 69.6818 30.6591C68.6591 30.6591 67.7462 30.4223 66.9432 29.9489C66.1402 29.4754 65.5076 28.7917 65.0455 27.8977C64.5833 27.0038 64.3523 25.9318 64.3523 24.6818C64.3523 23.428 64.5852 22.3561 65.0511 21.4659C65.517 20.572 66.1515 19.8883 66.9545 19.4148C67.7576 18.9413 68.6667 18.7045 69.6818 18.7045C70.3295 18.7045 70.9318 18.7955 71.4886 18.9773C72.0455 19.1591 72.5417 19.4261 72.9773 19.7784C73.4129 20.1269 73.7708 20.5549 74.0511 21.0625C74.3352 21.5663 74.5208 22.142 74.608 22.7898ZM75.9702 23.4602V21.7727H83.6065V23.4602H80.7827V30.5H78.794V23.4602H75.9702ZM88.6918 30.6705C87.8395 30.6705 87.1009 30.483 86.4759 30.108C85.8509 29.733 85.366 29.2083 85.0213 28.5341C84.6804 27.8598 84.5099 27.072 84.5099 26.1705C84.5099 25.2689 84.6804 24.4792 85.0213 23.8011C85.366 23.1231 85.8509 22.5966 86.4759 22.2216C87.1009 21.8466 87.8395 21.6591 88.6918 21.6591C89.544 21.6591 90.2827 21.8466 90.9077 22.2216C91.5327 22.5966 92.0156 23.1231 92.3565 23.8011C92.7012 24.4792 92.8736 25.2689 92.8736 26.1705C92.8736 27.072 92.7012 27.8598 92.3565 28.5341C92.0156 29.2083 91.5327 29.733 90.9077 30.108C90.2827 30.483 89.544 30.6705 88.6918 30.6705ZM88.7031 29.0227C89.1652 29.0227 89.5516 28.8958 89.8622 28.642C90.1728 28.3845 90.4039 28.0398 90.5554 27.608C90.7107 27.1761 90.7884 26.6951 90.7884 26.1648C90.7884 25.6307 90.7107 25.1477 90.5554 24.7159C90.4039 24.2803 90.1728 23.9337 89.8622 23.6761C89.5516 23.4186 89.1652 23.2898 88.7031 23.2898C88.2296 23.2898 87.8357 23.4186 87.5213 23.6761C87.2107 23.9337 86.9777 24.2803 86.8224 24.7159C86.6709 25.1477 86.5952 25.6307 86.5952 26.1648C86.5952 26.6951 86.6709 27.1761 86.8224 27.608C86.9777 28.0398 87.2107 28.3845 87.5213 28.642C87.8357 28.8958 88.2296 29.0227 88.7031 29.0227ZM94.017 30.5L94.0057 28.8068H94.3068C94.5341 28.8068 94.7254 28.7557 94.8807 28.6534C95.036 28.5511 95.1648 28.3807 95.267 28.142C95.3693 27.8996 95.4489 27.5739 95.5057 27.1648C95.5625 26.7557 95.6023 26.2462 95.625 25.6364L95.7784 21.7727H102.142V30.5H100.153V23.4602H97.6477L97.5114 26.2727C97.4773 27 97.3958 27.6307 97.267 28.1648C97.142 28.6951 96.964 29.1326 96.733 29.4773C96.5057 29.822 96.2197 30.0795 95.875 30.25C95.5303 30.4167 95.1231 30.5 94.6534 30.5H94.017ZM105.605 24.6136H108.179C109.293 24.6136 110.154 24.8845 110.764 25.4261C111.374 25.9678 111.681 26.678 111.685 27.5568C111.681 28.1288 111.541 28.6364 111.264 29.0795C110.991 29.5227 110.594 29.8712 110.071 30.125C109.552 30.375 108.921 30.5 108.179 30.5H104.213V21.7727H106.196V28.8125H108.179C108.626 28.8125 108.993 28.6989 109.281 28.4716C109.569 28.2405 109.713 27.9451 109.713 27.5852C109.713 27.2064 109.569 26.8977 109.281 26.6591C108.993 26.4205 108.626 26.3011 108.179 26.3011H105.605V24.6136ZM112.77 30.5V21.7727H114.827V30.5H112.77Z" fill="#333333"/>
<g clip-path="url(#clip0_35_19)">
<path d="M95 104.5H135V154.5H95V104.5Z" stroke="black" stroke-width="3" stroke-linejoin="round"/>
<path d="M40 94.5H140V104.5H40V94.5Z" stroke="black" stroke-width="3" stroke-linejoin="round"/>
<path d="M135 129.5H95" stroke="black" stroke-width="3" stroke-linejoin="round"/>
<path d="M120 114.5H110" stroke="black" stroke-width="3" stroke-linecap="round" stroke-linejoin="round"/>
<path d="M120 139.5H110" stroke="black" stroke-width="3" stroke-linecap="round" stroke-linejoin="round"/>
<path d="M45 107V154.5" stroke="black" stroke-width="3" stroke-linecap="round" stroke-linejoin="round"/>
</g>
<defs>
<clipPath id="clip0_35_19">
<rect width="120" height="120" fill="white" transform="translate(30 44.5)"/>
</clipPath>
</defs>
</svg>
